<svg width="180" height="180" viewBox="0 0 180 180" fill="none" xmlns="http://www.w3.org/2000/svg">
<rect width="180" height="180" fill="#026075"/>
<path d="M57.2907 123.26C50.6307 123.26 44.6307 121.85 39.2907 119.03C34.0107 116.21 29.8407 112.31 26.7807 107.33C23.7807 102.35 22.2807 96.74 22.2807 90.5C22.2807 84.26 23.7807 78.65 26.7807 73.67C29.8407 68.69 34.0107 64.79 39.2907 61.97C44.6307 59.15 50.6307 57.74 57.2907 57.74C63.9507 57.74 69.9207 59.15 75.2007 61.97C80.5407 64.79 84.7107 68.69 87.7107 73.67C90.7707 78.65 92.3007 84.26 92.3007 90.5C92.3007 96.74 90.7707 102.35 87.7107 107.33C84.7107 112.31 80.5407 116.21 75.2007 119.03C69.9207 121.85 63.9507 123.26 57.2907 123.26ZM57.2907 108.5C60.4707 108.5 63.3507 107.75 65.9307 106.25C68.5107 104.75 70.5507 102.65 72.0507 99.95C73.5507 97.19 74.3007 94.04 74.3007 90.5C74.3007 86.96 73.5507 83.84 72.0507 81.14C70.5507 78.38 68.5107 76.25 65.9307 74.75C63.3507 73.25 60.4707 72.5 57.2907 72.5C54.1107 72.5 51.2307 73.25 48.6507 74.75C46.0707 76.25 44.0307 78.38 42.5307 81.14C41.0307 83.84 40.2807 86.96 40.2807 90.5C40.2807 94.04 41.0307 97.19 42.5307 99.95C44.0307 102.65 46.0707 104.75 48.6507 106.25C51.2307 107.75 54.1107 108.5 57.2907 108.5ZM133.044 123.26C126.444 123.26 120.504 121.88 115.224 119.12C110.004 116.3 105.894 112.4 102.894 107.42C99.894 102.44 98.394 96.8 98.394 90.5C98.394 84.2 99.894 78.56 102.894 73.58C105.894 68.6 110.004 64.73 115.224 61.97C120.504 59.15 126.444 57.74 133.044 57.74C138.804 57.74 143.994 58.76 148.614 60.8C153.234 62.84 157.074 65.78 160.134 69.62L148.794 79.88C144.714 74.96 139.764 72.5 133.944 72.5C130.524 72.5 127.464 73.25 124.764 74.75C122.124 76.25 120.054 78.38 118.554 81.14C117.114 83.84 116.394 86.96 116.394 90.5C116.394 94.04 117.114 97.19 118.554 99.95C120.054 102.65 122.124 104.75 124.764 106.25C127.464 107.75 130.524 108.5 133.944 108.5C139.764 108.5 144.714 106.04 148.794 101.12L160.134 111.38C157.074 115.22 153.234 118.16 148.614 120.2C143.994 122.24 138.804 123.26 133.044 123.26Z" fill="white"/>
</svg>
