<svg width="26" height="13" viewBox="0 0 26 13" fill="none" xmlns="http://www.w3.org/2000/svg">
<path d="M7.09613 12.224C5.91213 12.224 4.84546 11.9733 3.89613 11.472C2.95746 10.9707 2.21613 10.2773 1.67213 9.392C1.13879 8.50667 0.872125 7.50933 0.872125 6.4C0.872125 5.29067 1.13879 4.29333 1.67213 3.408C2.21613 2.52267 2.95746 1.82933 3.89613 1.328C4.84546 0.826666 5.91213 0.575999 7.09613 0.575999C8.28013 0.575999 9.34146 0.826666 10.2801 1.328C11.2295 1.82933 11.9708 2.52267 12.5041 3.408C13.0481 4.29333 13.3201 5.29067 13.3201 6.4C13.3201 7.50933 13.0481 8.50667 12.5041 9.392C11.9708 10.2773 11.2295 10.9707 10.2801 11.472C9.34146 11.9733 8.28013 12.224 7.09613 12.224ZM7.09613 9.6C7.66146 9.6 8.17346 9.46667 8.63213 9.2C9.09079 8.93333 9.45346 8.56 9.72013 8.08C9.98679 7.58933 10.1201 7.02933 10.1201 6.4C10.1201 5.77067 9.98679 5.216 9.72013 4.736C9.45346 4.24533 9.09079 3.86667 8.63213 3.6C8.17346 3.33333 7.66146 3.2 7.09613 3.2C6.53079 3.2 6.01879 3.33333 5.56013 3.6C5.10146 3.86667 4.73879 4.24533 4.47213 4.736C4.20546 5.216 4.07213 5.77067 4.07213 6.4C4.07213 7.02933 4.20546 7.58933 4.47213 8.08C4.73879 8.56 5.10146 8.93333 5.56013 9.2C6.01879 9.46667 6.53079 9.6 7.09613 9.6ZM20.5634 12.224C19.39 12.224 18.334 11.9787 17.3954 11.488C16.4674 10.9867 15.7367 10.2933 15.2034 9.408C14.67 8.52267 14.4034 7.52 14.4034 6.4C14.4034 5.28 14.67 4.27733 15.2034 3.392C15.7367 2.50667 16.4674 1.81867 17.3954 1.328C18.334 0.826666 19.39 0.575999 20.5634 0.575999C21.5874 0.575999 22.51 0.757333 23.3314 1.12C24.1527 1.48267 24.8354 2.00533 25.3794 2.688L23.3634 4.512C22.638 3.63733 21.758 3.2 20.7234 3.2C20.1154 3.2 19.5714 3.33333 19.0914 3.6C18.622 3.86667 18.254 4.24533 17.9874 4.736C17.7314 5.216 17.6034 5.77067 17.6034 6.4C17.6034 7.02933 17.7314 7.58933 17.9874 8.08C18.254 8.56 18.622 8.93333 19.0914 9.2C19.5714 9.46667 20.1154 9.6 20.7234 9.6C21.758 9.6 22.638 9.16267 23.3634 8.288L25.3794 10.112C24.8354 10.7947 24.1527 11.3173 23.3314 11.68C22.51 12.0427 21.5874 12.224 20.5634 12.224Z" fill="#026075"/>
</svg>
